<?xml version="1.0" encoding="utf-8"?>
<!-- Generator: Adobe Illustrator 16.0.3, SVG Export Plug-In . SVG Version: 6.00 Build 0)  -->
<!DOCTYPE svg PUBLIC "-//W3C//DTD SVG 1.1//EN" "http://www.w3.org/Graphics/SVG/1.1/DTD/svg11.dtd">
<svg version="1.1" id="Rounded_Rectangle_2_copy_1_"
	 xmlns="http://www.w3.org/2000/svg" xmlns:xlink="http://www.w3.org/1999/xlink" x="0px" y="0px" width="96px" height="96px"
	 viewBox="0 0 96 96" enable-background="new 0 0 96 96" xml:space="preserve">
<g id="Rounded_Rectangle_2_copy">
	<g>
		<path fill-rule="evenodd" clip-rule="evenodd" fill="#89C9DC" d="M90.385,7.92H5.615C3.177,7.92,1.2,9.896,1.2,12.333v59.133
			c0,2.438,1.977,4.413,4.416,4.413h37.97v9.708c0,0-21.84,0-24.763,0c-6.227,0-6.143,4.413-6.143,4.413H83.32
			c0,0-0.296-4.413-6.143-4.413c-4.829,0-24.763,0-24.763,0v-9.708h37.97c2.438,0,4.415-1.976,4.415-4.413V12.333
			C94.8,9.896,92.823,7.92,90.385,7.92z M92.15,66.858c0,2.057-1.864,3.725-4.165,3.725H8.014c-2.3,0-4.165-1.668-4.165-3.725V16.94
			c0-2.057,1.865-3.725,4.165-3.725h79.971c2.301,0,4.165,1.668,4.165,3.725V66.858z M36.17,41.805
			c1.362-0.961,1.814-2.45,2.458-4.239c-0.728-2.32-0.935-4.868-0.935-5.966c0-1.025,0.111-1.992,0.299-2.909
			c-1.325-2.416-2.918-4.002-5.446-4.002c-4.064,0-7.358,4.099-7.358,9.155c0,3.299,1.408,6.182,3.512,7.792
			c-4.036,1.715-11.606,5.553-11.606,6.488v8.788c0,1.214,0.988,2.197,2.208,2.197h8.389V48.875c0-1.012,5.398-3.996,10.267-6.306
			C37.325,42.291,36.722,42.033,36.17,41.805z M52.348,41.786c2.675-1.896,4.482-5.479,4.482-9.595
			c0-6.093-3.953-11.032-8.83-11.032s-8.83,4.939-8.83,11.032c0,3.976,1.689,7.45,4.213,9.392
			c-4.843,2.066-13.927,6.692-13.927,7.819v10.591c0,1.462,1.186,2.647,2.649,2.647h31.789c1.463,0,2.648-1.186,2.648-2.647V49.401
			C66.543,48.311,57.535,43.938,52.348,41.786z M67.076,41.805c2.229-1.573,3.735-4.546,3.735-7.961
			c0-5.056-3.295-9.155-7.358-9.155c-2.528,0-4.121,1.586-5.446,4.002c0.188,0.917,0.3,1.884,0.3,2.909
			c0,1.695-0.083,4.149-0.803,6.285c0.616,1.545,0.926,2.852,2.102,3.751c-0.643,0.273-1.382,0.604-2.16,0.966
			c5.185,2.327,10.864,5.263,10.864,6.273v10.234h8.389c1.219,0,2.207-0.983,2.207-2.197v-8.788
			C78.905,47.219,71.398,43.591,67.076,41.805z"/>
	</g>
</g>
</svg>
